<?xml version="1.0" encoding="UTF-8" standalone="no"?><!DOCTYPE svg PUBLIC "-//W3C//DTD SVG 1.1//EN" "http://www.w3.org/Graphics/SVG/1.1/DTD/svg11.dtd"><svg width="32px" height="32px" version="1.1" xmlns="http://www.w3.org/2000/svg" xmlns:xlink="http://www.w3.org/1999/xlink" xml:space="preserve" xmlns:serif="http://www.serif.com/" style="fill-rule:evenodd;clip-rule:evenodd;stroke-linejoin:round;stroke-miterlimit:2;"><g><g><path id="c1lSHusfI" d="M8.5,16.41c-4.14,0 -7.5,-3.08 -7.5,-6.88c0,-3.8 3.36,-6.87 7.5,-6.87c4.14,-0 7.5,3.08 7.5,6.87c0,3.79 -3.36,6.88 -7.5,6.88Z" style="fill:#40ccd0;fill-rule:nonzero;"/><path id="c1lSHusfI-2" d="M8.5,16.41c-4.14,0 -7.5,-3.08 -7.5,-6.88c0,-3.8 3.36,-6.87 7.5,-6.87c4.14,-0 7.5,3.08 7.5,6.87c0,3.79 -3.36,6.88 -7.5,6.88Z" style="fill-rule:nonzero;"/></g><g><path id="cxjjA1190" d="M8.5,15.31c-3.313,0.135 -6.154,-2.468 -6.31,-5.78c0.156,-3.312 2.997,-5.915 6.31,-5.78c3.313,-0.135 6.154,2.468 6.31,5.78c-0.156,3.312 -2.997,5.915 -6.31,5.78Z" style="fill-rule:nonzero;"/><path id="cxjjA1190-2" d="M8.5,15.31c-3.313,0.135 -6.154,-2.468 -6.31,-5.78c0.156,-3.312 2.997,-5.915 6.31,-5.78c3.313,-0.135 6.154,2.468 6.31,5.78c-0.156,3.312 -2.997,5.915 -6.31,5.78Z" style="fill-rule:nonzero;"/></g><g><path id="a9nD95wn" d="M23.5,15c-4.14,0 -7.5,-3 -7.5,-6.84c0,-3.84 3.36,-6.88 7.5,-6.88c4.14,0 7.5,3.08 7.5,6.88c0,3.8 -3.36,6.84 -7.5,6.84Z" style="fill:#ecdb33;fill-rule:nonzero;"/><path id="a9nD95wn-2" d="M23.5,15c-4.14,0 -7.5,-3 -7.5,-6.84c0,-3.84 3.36,-6.88 7.5,-6.88c4.14,0 7.5,3.08 7.5,6.88c0,3.8 -3.36,6.84 -7.5,6.84Z" style="fill-rule:nonzero;"/></g><g><path id="b2HbEi674W" d="M23.5,13.94c-3.313,0.135 -6.154,-2.468 -6.31,-5.78c0.156,-3.312 2.997,-5.915 6.31,-5.78c3.313,-0.135 6.154,2.468 6.31,5.78c-0.156,3.312 -2.997,5.915 -6.31,5.78Z" style="fill-rule:nonzero;"/><path id="b2HbEi674W-2" d="M23.5,13.94c-3.313,0.135 -6.154,-2.468 -6.31,-5.78c0.156,-3.312 2.997,-5.915 6.31,-5.78c3.313,-0.135 6.154,2.468 6.31,5.78c-0.156,3.312 -2.997,5.915 -6.31,5.78Z" style="fill-rule:nonzero;"/></g><g><path id="b2WcRpcLCB" d="M8.5,30.72c-4.14,0 -7.5,-3.08 -7.5,-6.88c0,-3.8 3.36,-6.84 7.5,-6.84c4.14,0 7.5,3.05 7.5,6.84c0,3.79 -3.36,6.88 -7.5,6.88Z" style="fill:#3f5554;fill-rule:nonzero;"/><path id="b2WcRpcLCB-2" d="M8.5,30.72c-4.14,0 -7.5,-3.08 -7.5,-6.88c0,-3.8 3.36,-6.84 7.5,-6.84c4.14,0 7.5,3.05 7.5,6.84c0,3.79 -3.36,6.88 -7.5,6.88Z" style="fill-rule:nonzero;"/></g><g><path id="c1la0ENz2l" d="M8.5,29.62c-3.313,0.135 -6.154,-2.468 -6.31,-5.78c0.156,-3.312 2.997,-5.915 6.31,-5.78c3.313,-0.135 6.154,2.468 6.31,5.78c-0.156,3.312 -2.997,5.915 -6.31,5.78Z" style="fill-rule:nonzero;"/><path id="c1la0ENz2l-2" d="M8.5,29.62c-3.313,0.135 -6.154,-2.468 -6.31,-5.78c0.156,-3.312 2.997,-5.915 6.31,-5.78c3.313,-0.135 6.154,2.468 6.31,5.78c-0.156,3.312 -2.997,5.915 -6.31,5.78Z" style="fill-rule:nonzero;"/></g><g><path id="l1osqn9Lb" d="M23.5,29.34c-4.14,0 -7.5,-3.08 -7.5,-6.87c0,-3.79 3.36,-6.88 7.5,-6.88c4.14,0 7.5,3.08 7.5,6.88c0,3.8 -3.36,6.87 -7.5,6.87Z" style="fill:#3f5554;fill-rule:nonzero;"/><path id="l1osqn9Lb-2" d="M23.5,29.34c-4.14,0 -7.5,-3.08 -7.5,-6.87c0,-3.79 3.36,-6.88 7.5,-6.88c4.14,0 7.5,3.08 7.5,6.88c0,3.8 -3.36,6.87 -7.5,6.87Z" style="fill-rule:nonzero;"/></g><g><path id="aocZHFv4F" d="M23.5,28.25c-3.313,0.135 -6.154,-2.468 -6.31,-5.78c0.156,-3.312 2.997,-5.915 6.31,-5.78c3.313,-0.135 6.154,2.468 6.31,5.78c-0.156,3.312 -2.997,5.915 -6.31,5.78Z" style="fill-rule:nonzero;"/><path id="aocZHFv4F-2" d="M23.5,28.25c-3.313,0.135 -6.154,-2.468 -6.31,-5.78c0.156,-3.312 2.997,-5.915 6.31,-5.78c3.313,-0.135 6.154,2.468 6.31,5.78c-0.156,3.312 -2.997,5.915 -6.31,5.78Z" style="fill-rule:nonzero;"/></g></g><path d="M32,1.72c0,-0.949 -0.771,-1.72 -1.72,-1.72l-28.56,0c-0.949,0 -1.72,0.771 -1.72,1.72l0,28.55c0,0.949 0.771,1.72 1.72,1.72l28.56,0c0.949,0 1.72,-0.771 1.72,-1.72l0,-28.55Z" style="fill:#e99700;"/><g><path d="M9.39,20.75l2.038,0l-3.342,-9.51l-2.323,-0l-3.328,9.51l2.024,0l0.57,-1.712l3.791,0l0.57,1.712Zm-3.763,-3.464l1.304,-3.886l1.305,3.886l-2.609,-0Z" style="fill:#fff;fill-rule:nonzero;"/><path d="M16.509,20.94c2.745,0 4.946,-2.173 4.946,-4.945c-0,-2.785 -2.201,-4.945 -4.946,-4.945c-2.744,-0 -4.931,2.16 -4.931,4.945c-0,2.772 2.187,4.945 4.931,4.945Zm0,-1.834c-1.725,0 -3.07,-1.29 -3.07,-3.111c0,-1.834 1.345,-3.125 3.07,-3.125c1.726,0 3.071,1.291 3.071,3.125c-0,1.821 -1.345,3.111 -3.071,3.111Z" style="fill:#fff;fill-rule:nonzero;"/><path d="M26.318,11.24l-3.545,-0l-0,9.51l1.874,0l0,-3.125l1.671,0c1.835,0 3.247,-1.413 3.247,-3.192c0,-1.78 -1.412,-3.193 -3.247,-3.193Zm0,4.633l-1.671,-0l0,-2.88l1.671,-0c0.802,-0 1.386,0.611 1.386,1.44c0,0.815 -0.584,1.44 -1.386,1.44Z" style="fill:#fff;fill-rule:nonzero;"/></g></svg>