<svg id="Layer_1" data-name="Layer 1" xmlns="http://www.w3.org/2000/svg" width="26.84" height="30.43" viewBox="0 0 26.84 30.43">
  <defs>
    <style>
      .cls-1 {
        fill: #1976d2;
      }

      .cls-2 {
        fill: #fff;
      }
    </style>
  </defs>
  <path class="cls-1" d="M1.45,0H25.39a1.57,1.57,0,0,1,1.45,1.67V28.76a1.57,1.57,0,0,1-1.45,1.67H1.45A1.57,1.57,0,0,1,0,28.76V1.67A1.57,1.57,0,0,1,1.45,0Z" transform="translate(0)"/>
  <g>
    <path class="cls-2" d="M3.48,15.21A5.49,5.49,0,0,1,9.11,9.58a5.4,5.4,0,0,1,4.66,2.56L11.93,13.2a3.13,3.13,0,0,0-2.82-1.54A3.35,3.35,0,0,0,5.6,15.21a3.35,3.35,0,0,0,3.51,3.55,3.14,3.14,0,0,0,2.82-1.53l1.84,1.06a5.35,5.35,0,0,1-4.66,2.56A5.5,5.5,0,0,1,3.48,15.21Z" transform="translate(0)"/>
    <path class="cls-2" d="M23.36,9.8V20.63H21.25V16.14h-4v4.49H15.09V9.8h2.13v4.3h4V9.8Z" transform="translate(0)"/>
  </g>
</svg>
