<svg id="Layer_1" data-name="Layer 1" xmlns="http://www.w3.org/2000/svg" width="46.09" height="30.43" viewBox="0 0 46.09 30.43">
  <defs>
    <style>
      .cls-1 {
        fill: #1976d2;
      }

      .cls-2 {
        fill: #fff;
      }
    </style>
  </defs>
  <path class="cls-1" d="M2.49,0H43.61C45,0,46.1.75,46.1,1.67V28.76c0,.92-1.12,1.67-2.49,1.67H2.49C1.12,30.43,0,29.68,0,28.76V1.67C0,.75,1.12,0,2.49,0Z" transform="translate(0)"/>
  <g>
    <path class="cls-2" d="M13.58,14.34a5.22,5.22,0,0,1-5.21,5.42H4.07V8.93h4.3A5.21,5.21,0,0,1,13.58,14.34Zm-2,0A3.13,3.13,0,0,0,8.37,11H6.2v6.74H8.37A3.12,3.12,0,0,0,11.54,14.34Z" transform="translate(0)"/>
    <path class="cls-2" d="M21,17.81H16.71l-.65,2h-2.3L17.55,8.93h2.64L24,19.76H21.68Zm-.67-2-1.48-4.42-1.49,4.42Z" transform="translate(0)"/>
    <path class="cls-2" d="M24.25,17.3l1.83-1.07a2.42,2.42,0,0,0,2.49,1.66c1.28,0,1.73-.55,1.73-1.15,0-.8-.73-1.11-2.34-1.58S24.7,14,24.7,11.93a3.3,3.3,0,0,1,3.56-3.22,4.09,4.09,0,0,1,3.86,2.43l-1.79,1a2.13,2.13,0,0,0-2.07-1.4c-.9,0-1.43.47-1.43,1.09s.42,1,2.06,1.51,3.54,1.12,3.54,3.33c0,2-1.62,3.26-3.93,3.26A4.17,4.17,0,0,1,24.25,17.3Z" transform="translate(0)"/>
    <path class="cls-2" d="M42,8.93V19.76H39.91V15.27h-4v4.49H33.75V8.93h2.14v4.3h4V8.93Z" transform="translate(0)"/>
  </g>
</svg>
