<svg id="Layer_1" data-name="Layer 1" xmlns="http://www.w3.org/2000/svg" width="46.1" height="30.43" viewBox="0 0 46.1 30.43">
  <defs>
    <style>
      .cls-1 {
        fill: #e22d65;
      }

      .cls-2 {
        fill: #fff;
      }
    </style>
  </defs>
  <path class="cls-1" d="M2.49,0H43.61C45,0,46.1.75,46.1,1.67V28.76c0,.92-1.12,1.67-2.49,1.67H2.49C1.12,30.43,0,29.68,0,28.76V1.67C0,.75,1.12,0,2.49,0Z"/>
  <g>
    <path class="cls-2" d="M10.9,9.07a3.45,3.45,0,0,1-3.31,3.59h-3V5.49H7.45A3.43,3.43,0,0,1,10.9,8.92Zm-1.35,0a2.06,2.06,0,0,0-1.9-2.22H6V11.3H7.45a2.07,2.07,0,0,0,2.11-2A1.34,1.34,0,0,0,9.55,9.07Z"/>
    <path class="cls-2" d="M11.79,10.31V5.49H13.2V10.2c0,.69.36,1.22,1.33,1.22s1.33-.53,1.33-1.22V5.49h1.41v4.82a2.48,2.48,0,0,1-2.48,2.5h-.26a2.49,2.49,0,0,1-2.73-2.23A2.17,2.17,0,0,1,11.79,10.31Z"/>
    <path class="cls-2" d="M21,10.17H20v2.49H18.54V5.49h2.87a2.37,2.37,0,0,1,2.38,2.36h0A2.35,2.35,0,0,1,22.41,10L24,12.66H22.47ZM20,8.93h1.46a1,1,0,0,0,1-1V7.86a1,1,0,0,0-.95-1.05H20Z"/>
    <path class="cls-2" d="M26.24,5.49v7.17H24.83V5.49Z"/>
    <path class="cls-2" d="M33.13,5.49v7.17H32.05L29,8.27v4.39H27.57V5.49h1.07l3.08,4.37V5.49Z"/>
    <path class="cls-2" d="M41.49,9.36a3.31,3.31,0,0,1-3.17,3.44H38a3.73,3.73,0,1,1-.08-7.46A3.65,3.65,0,0,1,41,7l-1.21.7a2.19,2.19,0,0,0-1.92-1,2.27,2.27,0,0,0-2.34,2.2v.16a2.3,2.3,0,0,0,2.21,2.37H38a2,2,0,0,0,2.09-1.37H37.9V8.81h3.59Z"/>
    <path class="cls-2" d="M9.58,22.45H8.5v2.49H7.09V17.77H10a2.39,2.39,0,0,1,2.39,2.37h0A2.34,2.34,0,0,1,11,22.24l1.58,2.7H11ZM8.5,21.22H10a1,1,0,0,0,1-1v-.07a1,1,0,0,0-1-1H8.5Z"/>
    <path class="cls-2" d="M18,19.13H16v5.81H14.61V19.13H12.69V17.77H18Z"/>
    <path class="cls-2" d="M18.24,17.77h1.48l1.37,5.32,1.5-5.32H23.8l1.5,5.32,1.37-5.32h1.49l-2,7.17h-1.6L23.2,20.21l-1.34,4.73H20.24Z"/>
    <path class="cls-2" d="M28.4,23.31l1.21-.7a1.62,1.62,0,0,0,1.65,1.09c.85,0,1.15-.36,1.15-.75s-.48-.74-1.55-1.05-2.16-.78-2.16-2.14a2.19,2.19,0,0,1,2.24-2.14h.12a2.73,2.73,0,0,1,2.56,1.61l-1.19.69A1.42,1.42,0,0,0,31.06,19c-.6,0-.95.31-.95.72s.28.68,1.37,1,2.34.74,2.34,2.21-1.07,2.16-2.6,2.16A2.78,2.78,0,0,1,28.4,23.31Z"/>
    <path class="cls-2" d="M39.23,19.13H37.29v5.81H35.88V19.13H34V17.77h5.28Z"/>
  </g>
</svg>
