<svg id="Layer_1" data-name="Layer 1" xmlns="http://www.w3.org/2000/svg" width="46.09" height="30.43" viewBox="0 0 46.09 30.43">
  <defs>
    <style>
      .cls-1 {
        fill: #1976d2;
      }

      .cls-2 {
        fill: #fff;
      }
    </style>
  </defs>
  <path class="cls-1" d="M2.49,0H43.61C45,0,46.1.75,46.1,1.67V28.76c0,.92-1.12,1.67-2.49,1.67H2.49C1.12,30.43,0,29.68,0,28.76V1.67C0,.75,1.12,0,2.49,0Z" transform="translate(0)"/>
  <g>
    <path class="cls-2" d="M10.9,9.07a3.45,3.45,0,0,1-3.45,3.59H4.61V5.49H7.45A3.44,3.44,0,0,1,10.9,9.07Zm-1.35,0a2.07,2.07,0,0,0-2.1-2.23H6V11.3H7.45A2.07,2.07,0,0,0,9.55,9.07Z" transform="translate(0)"/>
    <path class="cls-2" d="M11.79,10.31V5.49H13.2V10.2c0,.69.36,1.22,1.33,1.22s1.33-.53,1.33-1.22V5.49h1.41v4.82a2.49,2.49,0,0,1-2.74,2.49A2.49,2.49,0,0,1,11.79,10.31Z" transform="translate(0)"/>
    <path class="cls-2" d="M21,10.17H20v2.49H18.54V5.49h2.87a2.37,2.37,0,0,1,2.38,2.37A2.34,2.34,0,0,1,22.41,10L24,12.66H22.47ZM20,8.93h1.46a1,1,0,0,0,1-1.07,1,1,0,0,0-1-1.05H20Z" transform="translate(0)"/>
    <path class="cls-2" d="M26.24,5.49v7.17H24.83V5.49Z" transform="translate(0)"/>
    <path class="cls-2" d="M33.13,5.49v7.17H32.05L29,8.27v4.39H27.57V5.49h1.07l3.08,4.37V5.49Z" transform="translate(0)"/>
    <path class="cls-2" d="M41.49,9.36A3.31,3.31,0,0,1,38,12.8a3.73,3.73,0,1,1-.08-7.46A3.64,3.64,0,0,1,41,7l-1.21.7a2.18,2.18,0,0,0-1.92-1,2.27,2.27,0,0,0-2.34,2.36A2.29,2.29,0,0,0,38,11.42a2,2,0,0,0,2.09-1.37H37.9V8.81h3.59Z" transform="translate(0)"/>
    <path class="cls-2" d="M9.58,22.45H8.5v2.49H7.09V17.77H10a2.38,2.38,0,0,1,2.39,2.38A2.34,2.34,0,0,1,11,22.24l1.58,2.7H11ZM8.5,21.22H10a1,1,0,0,0,1-1.07,1,1,0,0,0-1-1H8.5Z" transform="translate(0)"/>
    <path class="cls-2" d="M18,19.13H16v5.81H14.61V19.13H12.69V17.77H18Z" transform="translate(0)"/>
    <path class="cls-2" d="M18.24,17.77h1.48l1.37,5.32,1.5-5.32H23.8l1.5,5.32,1.37-5.32h1.49l-2,7.17h-1.6l-1.36-4.73-1.34,4.73H20.24Z" transform="translate(0)"/>
    <path class="cls-2" d="M28.4,23.31l1.21-.7a1.62,1.62,0,0,0,1.65,1.09c.85,0,1.15-.36,1.15-.75s-.48-.74-1.55-1.05-2.16-.78-2.16-2.14a2.19,2.19,0,0,1,2.36-2.13,2.74,2.74,0,0,1,2.56,1.61l-1.19.69A1.41,1.41,0,0,0,31.06,19c-.6,0-.95.31-.95.72s.28.68,1.37,1,2.34.74,2.34,2.21-1.07,2.16-2.6,2.16A2.78,2.78,0,0,1,28.4,23.31Z" transform="translate(0)"/>
    <path class="cls-2" d="M39.23,19.13H37.29v5.81H35.88V19.13H34V17.77h5.28Z" transform="translate(0)"/>
  </g>
</svg>
