<svg id="Layer_1" data-name="Layer 1" xmlns="http://www.w3.org/2000/svg" width="46.09" height="30.43" viewBox="0 0 46.09 30.43">
  <defs>
    <style>
      .cls-1 {
        fill: #1976d2;
      }

      .cls-2 {
        fill: #fff;
      }
    </style>
  </defs>
  <path class="cls-1" d="M2.49,0H43.61C45,0,46.1.75,46.1,1.67V28.76c0,.92-1.12,1.67-2.49,1.67H2.49C1.12,30.43,0,29.68,0,28.76V1.67C0,.75,1.12,0,2.49,0Z" transform="translate(0)"/>
  <g>
    <path class="cls-2" d="M11.07,8.49a3.46,3.46,0,0,1-3.45,3.59H4.77V4.91H7.62A3.46,3.46,0,0,1,11.07,8.49Zm-1.36,0A2.07,2.07,0,0,0,7.62,6.26H6.18v4.47H7.62A2.07,2.07,0,0,0,9.71,8.49Z" transform="translate(0)"/>
    <path class="cls-2" d="M12,9.73V4.91h1.4V9.62c0,.7.37,1.22,1.33,1.22S16,10.32,16,9.62V4.91h1.41V9.73a2.48,2.48,0,0,1-2.74,2.49A2.48,2.48,0,0,1,12,9.73Z" transform="translate(0)"/>
    <path class="cls-2" d="M21.19,9.59H20.12v2.49H18.7V4.91h2.87A2.38,2.38,0,0,1,24,7.29a2.33,2.33,0,0,1-1.39,2.08l1.59,2.71H22.63ZM20.12,8.35h1.45a1,1,0,0,0,1-1.06,1,1,0,0,0-1-1.06H20.12Z" transform="translate(0)"/>
    <path class="cls-2" d="M26.4,4.91v7.17H25V4.91Z" transform="translate(0)"/>
    <path class="cls-2" d="M33.29,4.91v7.17H32.22L29.15,7.69v4.39H27.73V4.91h1.08l3.07,4.37V4.91Z" transform="translate(0)"/>
    <path class="cls-2" d="M41.66,8.78a3.32,3.32,0,0,1-3.52,3.44,3.73,3.73,0,1,1-.09-7.45,3.63,3.63,0,0,1,3.13,1.67L40,7.13a2.21,2.21,0,0,0-1.93-1A2.27,2.27,0,0,0,35.7,8.5a2.29,2.29,0,0,0,2.45,2.34,2,2,0,0,0,2.09-1.36H38.06V8.23h3.6Z" transform="translate(0)"/>
    <path class="cls-2" d="M12.36,23v1.35H8.21V17.2H9.62V23Z" transform="translate(0)"/>
    <path class="cls-2" d="M17.17,18.55H15.23v5.81H13.82V18.55H11.9V17.2h5.27Z" transform="translate(0)"/>
    <path class="cls-2" d="M17.44,17.2h1.49l1.37,5.31,1.49-5.31H23l1.51,5.31,1.37-5.31h1.49l-2,7.16H23.75L22.4,19.63l-1.34,4.73H19.45Z" transform="translate(0)"/>
    <path class="cls-2" d="M27.61,22.74,28.82,22a1.62,1.62,0,0,0,1.65,1.09c.85,0,1.14-.35,1.14-.75s-.48-.74-1.54-1.05-2.16-.78-2.16-2.14a2.18,2.18,0,0,1,2.35-2.13,2.73,2.73,0,0,1,2.56,1.61l-1.19.69a1.4,1.4,0,0,0-1.37-.93c-.59,0-.94.31-.94.72s.28.68,1.36,1S33,20.88,33,22.35s-1.08,2.16-2.6,2.16A2.77,2.77,0,0,1,27.61,22.74Z" transform="translate(0)"/>
    <path class="cls-2" d="M38.43,18.55H36.5v5.81H35.08V18.55H33.16V17.2h5.27Z" transform="translate(0)"/>
  </g>
</svg>
