<svg id="Layer_1" data-name="Layer 1" xmlns="http://www.w3.org/2000/svg" width="29.54" height="30.43" viewBox="0 0 29.54 30.43">
  <defs>
    <style>
      .cls-1 {
        fill: #1976d2;
      }

      .cls-2 {
        fill: #fff;
      }
    </style>
  </defs>
  <path class="cls-1" d="M1.6,0H27.94a1.64,1.64,0,0,1,1.6,1.67V28.76a1.64,1.64,0,0,1-1.6,1.67H1.6A1.64,1.64,0,0,1,0,28.76V1.67A1.64,1.64,0,0,1,1.6,0Z" transform="translate(0)"/>
  <g>
    <path class="cls-2" d="M8,11.84v2.57H12.2v2H8v4.18H5.86V9.8h6.46v2Z" transform="translate(0)"/>
    <path class="cls-2" d="M13.39,15.21A5.5,5.5,0,0,1,19,9.58a5.37,5.37,0,0,1,4.65,2.56L21.84,13.2A3.11,3.11,0,0,0,19,11.66a3.36,3.36,0,0,0-3.52,3.55A3.36,3.36,0,0,0,19,18.76a3.13,3.13,0,0,0,2.81-1.53l1.84,1.06A5.35,5.35,0,0,1,19,20.85,5.51,5.51,0,0,1,13.39,15.21Z" transform="translate(0)"/>
  </g>
</svg>
