<svg id="Layer_1" data-name="Layer 1" xmlns="http://www.w3.org/2000/svg" width="30.89" height="30.43" viewBox="0 0 30.89 30.43">
  <defs>
    <style>
      .cls-1 {
        fill: #1976d2;
      }

      .cls-2 {
        fill: #fff;
      }
    </style>
  </defs>
  <rect class="cls-1" width="30.89" height="30.43" rx="1.67"/>
  <g>
    <path class="cls-2" d="M4,8.59V9.94H6.22V11H4v2.21H2.88V7.51H6.29V8.59Z"/>
    <path class="cls-2" d="M10.43,12.15v1.08H7.12V7.51H8.24v4.64Z"/>
    <path class="cls-2" d="M10.45,10.37a3,3,0,1,1,3,3A2.95,2.95,0,0,1,10.45,10.37Zm4.81,0a1.85,1.85,0,1,0-3.69,0,1.85,1.85,0,1,0,3.69,0Z"/>
    <path class="cls-2" d="M16.93,10.37a3,3,0,1,1,3,3A2.94,2.94,0,0,1,16.93,10.37Zm4.81,0a1.85,1.85,0,1,0-3.69,0,1.85,1.85,0,1,0,3.69,0Z"/>
    <path class="cls-2" d="M25.65,11.24h-.86v2H23.66V7.51H26a1.9,1.9,0,0,1,1.9,1.89,1.87,1.87,0,0,1-1.1,1.67L28,13.23H26.8Zm-.86-1H26a.85.85,0,0,0,0-1.69H24.79Z"/>
    <path class="cls-2" d="M7.55,21.38A1.68,1.68,0,0,1,5.77,23H3.34V17.32H5.6a1.63,1.63,0,0,1,1.74,1.61,1.42,1.42,0,0,1-.54,1.14A1.46,1.46,0,0,1,7.55,21.38Zm-3.08-3v1.26H5.6a.63.63,0,0,0,0-1.26Zm2,2.93a.65.65,0,0,0-.66-.67H4.47V22h1.3A.65.65,0,0,0,6.43,21.3Z"/>
    <path class="cls-2" d="M10.27,21.05H9.41v2H8.29V17.32h2.28a1.9,1.9,0,0,1,1.91,1.89,1.86,1.86,0,0,1-1.11,1.67L12.64,23H11.42Zm-.86-1h1.16a.85.85,0,0,0,0-1.69H9.41Z"/>
    <path class="cls-2" d="M16.84,22V23H13.31V17.32H16.8V18.4H14.43v1.21H16.6v1.06H14.43V22Z"/>
    <path class="cls-2" d="M21.06,22H18.78l-.34,1H17.22l2-5.72h1.4l2,5.72H21.4ZM20.71,21l-.79-2.33L19.14,21Z"/>
    <path class="cls-2" d="M26.36,23l-2.05-2.68V23H23.19V17.32h1.12v2.52l2-2.52h1.3l-2.11,2.77L27.66,23Z"/>
  </g>
</svg>
