<?xml version="1.0" encoding="UTF-8" standalone="no"?><!DOCTYPE svg PUBLIC "-//W3C//DTD SVG 1.1//EN" "http://www.w3.org/Graphics/SVG/1.1/DTD/svg11.dtd"><svg width="32px" height="32px" version="1.1" xmlns="http://www.w3.org/2000/svg" xmlns:xlink="http://www.w3.org/1999/xlink" xml:space="preserve" xmlns:serif="http://www.serif.com/" style="fill-rule:evenodd;clip-rule:evenodd;stroke-linejoin:round;stroke-miterlimit:2;"><g><g><path id="c1lSHusfI" d="M8.5,16.41c-4.14,0 -7.5,-3.08 -7.5,-6.88c0,-3.8 3.36,-6.87 7.5,-6.87c4.14,-0 7.5,3.08 7.5,6.87c0,3.79 -3.36,6.88 -7.5,6.88Z" style="fill:#40ccd0;fill-rule:nonzero;"/><path id="c1lSHusfI-2" d="M8.5,16.41c-4.14,0 -7.5,-3.08 -7.5,-6.88c0,-3.8 3.36,-6.87 7.5,-6.87c4.14,-0 7.5,3.08 7.5,6.87c0,3.79 -3.36,6.88 -7.5,6.88Z" style="fill-rule:nonzero;"/></g><g><path id="cxjjA1190" d="M8.5,15.31c-3.313,0.135 -6.154,-2.468 -6.31,-5.78c0.156,-3.312 2.997,-5.915 6.31,-5.78c3.313,-0.135 6.154,2.468 6.31,5.78c-0.156,3.312 -2.997,5.915 -6.31,5.78Z" style="fill-rule:nonzero;"/><path id="cxjjA1190-2" d="M8.5,15.31c-3.313,0.135 -6.154,-2.468 -6.31,-5.78c0.156,-3.312 2.997,-5.915 6.31,-5.78c3.313,-0.135 6.154,2.468 6.31,5.78c-0.156,3.312 -2.997,5.915 -6.31,5.78Z" style="fill-rule:nonzero;"/></g><g><path id="a9nD95wn" d="M23.5,15c-4.14,0 -7.5,-3 -7.5,-6.84c0,-3.84 3.36,-6.88 7.5,-6.88c4.14,0 7.5,3.08 7.5,6.88c0,3.8 -3.36,6.84 -7.5,6.84Z" style="fill:#ecdb33;fill-rule:nonzero;"/><path id="a9nD95wn-2" d="M23.5,15c-4.14,0 -7.5,-3 -7.5,-6.84c0,-3.84 3.36,-6.88 7.5,-6.88c4.14,0 7.5,3.08 7.5,6.88c0,3.8 -3.36,6.84 -7.5,6.84Z" style="fill-rule:nonzero;"/></g><g><path id="b2HbEi674W" d="M23.5,13.94c-3.313,0.135 -6.154,-2.468 -6.31,-5.78c0.156,-3.312 2.997,-5.915 6.31,-5.78c3.313,-0.135 6.154,2.468 6.31,5.78c-0.156,3.312 -2.997,5.915 -6.31,5.78Z" style="fill-rule:nonzero;"/><path id="b2HbEi674W-2" d="M23.5,13.94c-3.313,0.135 -6.154,-2.468 -6.31,-5.78c0.156,-3.312 2.997,-5.915 6.31,-5.78c3.313,-0.135 6.154,2.468 6.31,5.78c-0.156,3.312 -2.997,5.915 -6.31,5.78Z" style="fill-rule:nonzero;"/></g><g><path id="b2WcRpcLCB" d="M8.5,30.72c-4.14,0 -7.5,-3.08 -7.5,-6.88c0,-3.8 3.36,-6.84 7.5,-6.84c4.14,0 7.5,3.05 7.5,6.84c0,3.79 -3.36,6.88 -7.5,6.88Z" style="fill:#3f5554;fill-rule:nonzero;"/><path id="b2WcRpcLCB-2" d="M8.5,30.72c-4.14,0 -7.5,-3.08 -7.5,-6.88c0,-3.8 3.36,-6.84 7.5,-6.84c4.14,0 7.5,3.05 7.5,6.84c0,3.79 -3.36,6.88 -7.5,6.88Z" style="fill-rule:nonzero;"/></g><g><path id="c1la0ENz2l" d="M8.5,29.62c-3.313,0.135 -6.154,-2.468 -6.31,-5.78c0.156,-3.312 2.997,-5.915 6.31,-5.78c3.313,-0.135 6.154,2.468 6.31,5.78c-0.156,3.312 -2.997,5.915 -6.31,5.78Z" style="fill-rule:nonzero;"/><path id="c1la0ENz2l-2" d="M8.5,29.62c-3.313,0.135 -6.154,-2.468 -6.31,-5.78c0.156,-3.312 2.997,-5.915 6.31,-5.78c3.313,-0.135 6.154,2.468 6.31,5.78c-0.156,3.312 -2.997,5.915 -6.31,5.78Z" style="fill-rule:nonzero;"/></g><g><path id="l1osqn9Lb" d="M23.5,29.34c-4.14,0 -7.5,-3.08 -7.5,-6.87c0,-3.79 3.36,-6.88 7.5,-6.88c4.14,0 7.5,3.08 7.5,6.88c0,3.8 -3.36,6.87 -7.5,6.87Z" style="fill:#3f5554;fill-rule:nonzero;"/><path id="l1osqn9Lb-2" d="M23.5,29.34c-4.14,0 -7.5,-3.08 -7.5,-6.87c0,-3.79 3.36,-6.88 7.5,-6.88c4.14,0 7.5,3.08 7.5,6.88c0,3.8 -3.36,6.87 -7.5,6.87Z" style="fill-rule:nonzero;"/></g><g><path id="aocZHFv4F" d="M23.5,28.25c-3.313,0.135 -6.154,-2.468 -6.31,-5.78c0.156,-3.312 2.997,-5.915 6.31,-5.78c3.313,-0.135 6.154,2.468 6.31,5.78c-0.156,3.312 -2.997,5.915 -6.31,5.78Z" style="fill-rule:nonzero;"/><path id="aocZHFv4F-2" d="M23.5,28.25c-3.313,0.135 -6.154,-2.468 -6.31,-5.78c0.156,-3.312 2.997,-5.915 6.31,-5.78c3.313,-0.135 6.154,2.468 6.31,5.78c-0.156,3.312 -2.997,5.915 -6.31,5.78Z" style="fill-rule:nonzero;"/></g></g><path d="M32,1.72c0,-0.949 -0.771,-1.72 -1.72,-1.72l-28.56,0c-0.949,0 -1.72,0.771 -1.72,1.72l0,28.55c0,0.949 0.771,1.72 1.72,1.72l28.56,0c0.949,0 1.72,-0.771 1.72,-1.72l0,-28.55Z" style="fill:#e99700;"/><g><path d="M9.275,11.24l0,3.777l-3.532,-0l-0,-3.777l-1.875,-0l-0,9.51l1.875,0l-0,-3.94l3.532,0l0,3.94l1.861,0l0,-9.51l-1.861,-0Z" style="fill:#fff;fill-rule:nonzero;"/><path d="M20.429,11.24l-2.119,-0l-2.065,3.967l-2.066,-3.967l-2.119,-0l3.247,5.801l0,3.709l1.861,0l0,-3.709l3.261,-5.801Z" style="fill:#fff;fill-rule:nonzero;"/><path d="M24.885,11.24l-3.546,-0l0,9.51l1.875,0l0,-3.125l1.671,0c1.834,0 3.247,-1.413 3.247,-3.192c0,-1.78 -1.413,-3.193 -3.247,-3.193Zm0,4.633l-1.671,-0l0,-2.88l1.671,-0c0.802,-0 1.386,0.611 1.386,1.44c-0,0.815 -0.584,1.44 -1.386,1.44Z" style="fill:#fff;fill-rule:nonzero;"/></g></svg>