<?xml version="1.0" encoding="UTF-8" standalone="no"?><!DOCTYPE svg PUBLIC "-//W3C//DTD SVG 1.1//EN" "http://www.w3.org/Graphics/SVG/1.1/DTD/svg11.dtd"><svg width="32px" height="32px" version="1.1" xmlns="http://www.w3.org/2000/svg" xmlns:xlink="http://www.w3.org/1999/xlink" xml:space="preserve" xmlns:serif="http://www.serif.com/" style="fill-rule:evenodd;clip-rule:evenodd;stroke-linejoin:round;stroke-miterlimit:2;"><g><g><path id="c1lSHusfI" d="M8.5,16.41c-4.14,0 -7.5,-3.08 -7.5,-6.88c0,-3.8 3.36,-6.87 7.5,-6.87c4.14,-0 7.5,3.08 7.5,6.87c0,3.79 -3.36,6.88 -7.5,6.88Z" style="fill:#40ccd0;fill-rule:nonzero;"/><path id="c1lSHusfI-2" d="M8.5,16.41c-4.14,0 -7.5,-3.08 -7.5,-6.88c0,-3.8 3.36,-6.87 7.5,-6.87c4.14,-0 7.5,3.08 7.5,6.87c0,3.79 -3.36,6.88 -7.5,6.88Z" style="fill-rule:nonzero;"/></g><g><path id="cxjjA1190" d="M8.5,15.31c-3.313,0.135 -6.154,-2.468 -6.31,-5.78c0.156,-3.312 2.997,-5.915 6.31,-5.78c3.313,-0.135 6.154,2.468 6.31,5.78c-0.156,3.312 -2.997,5.915 -6.31,5.78Z" style="fill-rule:nonzero;"/><path id="cxjjA1190-2" d="M8.5,15.31c-3.313,0.135 -6.154,-2.468 -6.31,-5.78c0.156,-3.312 2.997,-5.915 6.31,-5.78c3.313,-0.135 6.154,2.468 6.31,5.78c-0.156,3.312 -2.997,5.915 -6.31,5.78Z" style="fill-rule:nonzero;"/></g><g><path id="a9nD95wn" d="M23.5,15c-4.14,0 -7.5,-3 -7.5,-6.84c0,-3.84 3.36,-6.88 7.5,-6.88c4.14,0 7.5,3.08 7.5,6.88c0,3.8 -3.36,6.84 -7.5,6.84Z" style="fill:#ecdb33;fill-rule:nonzero;"/><path id="a9nD95wn-2" d="M23.5,15c-4.14,0 -7.5,-3 -7.5,-6.84c0,-3.84 3.36,-6.88 7.5,-6.88c4.14,0 7.5,3.08 7.5,6.88c0,3.8 -3.36,6.84 -7.5,6.84Z" style="fill-rule:nonzero;"/></g><g><path id="b2HbEi674W" d="M23.5,13.94c-3.313,0.135 -6.154,-2.468 -6.31,-5.78c0.156,-3.312 2.997,-5.915 6.31,-5.78c3.313,-0.135 6.154,2.468 6.31,5.78c-0.156,3.312 -2.997,5.915 -6.31,5.78Z" style="fill-rule:nonzero;"/><path id="b2HbEi674W-2" d="M23.5,13.94c-3.313,0.135 -6.154,-2.468 -6.31,-5.78c0.156,-3.312 2.997,-5.915 6.31,-5.78c3.313,-0.135 6.154,2.468 6.31,5.78c-0.156,3.312 -2.997,5.915 -6.31,5.78Z" style="fill-rule:nonzero;"/></g><g><path id="b2WcRpcLCB" d="M8.5,30.72c-4.14,0 -7.5,-3.08 -7.5,-6.88c0,-3.8 3.36,-6.84 7.5,-6.84c4.14,0 7.5,3.05 7.5,6.84c0,3.79 -3.36,6.88 -7.5,6.88Z" style="fill:#3f5554;fill-rule:nonzero;"/><path id="b2WcRpcLCB-2" d="M8.5,30.72c-4.14,0 -7.5,-3.08 -7.5,-6.88c0,-3.8 3.36,-6.84 7.5,-6.84c4.14,0 7.5,3.05 7.5,6.84c0,3.79 -3.36,6.88 -7.5,6.88Z" style="fill-rule:nonzero;"/></g><g><path id="c1la0ENz2l" d="M8.5,29.62c-3.313,0.135 -6.154,-2.468 -6.31,-5.78c0.156,-3.312 2.997,-5.915 6.31,-5.78c3.313,-0.135 6.154,2.468 6.31,5.78c-0.156,3.312 -2.997,5.915 -6.31,5.78Z" style="fill-rule:nonzero;"/><path id="c1la0ENz2l-2" d="M8.5,29.62c-3.313,0.135 -6.154,-2.468 -6.31,-5.78c0.156,-3.312 2.997,-5.915 6.31,-5.78c3.313,-0.135 6.154,2.468 6.31,5.78c-0.156,3.312 -2.997,5.915 -6.31,5.78Z" style="fill-rule:nonzero;"/></g><g><path id="l1osqn9Lb" d="M23.5,29.34c-4.14,0 -7.5,-3.08 -7.5,-6.87c0,-3.79 3.36,-6.88 7.5,-6.88c4.14,0 7.5,3.08 7.5,6.88c0,3.8 -3.36,6.87 -7.5,6.87Z" style="fill:#3f5554;fill-rule:nonzero;"/><path id="l1osqn9Lb-2" d="M23.5,29.34c-4.14,0 -7.5,-3.08 -7.5,-6.87c0,-3.79 3.36,-6.88 7.5,-6.88c4.14,0 7.5,3.08 7.5,6.88c0,3.8 -3.36,6.87 -7.5,6.87Z" style="fill-rule:nonzero;"/></g><g><path id="aocZHFv4F" d="M23.5,28.25c-3.313,0.135 -6.154,-2.468 -6.31,-5.78c0.156,-3.312 2.997,-5.915 6.31,-5.78c3.313,-0.135 6.154,2.468 6.31,5.78c-0.156,3.312 -2.997,5.915 -6.31,5.78Z" style="fill-rule:nonzero;"/><path id="aocZHFv4F-2" d="M23.5,28.25c-3.313,0.135 -6.154,-2.468 -6.31,-5.78c0.156,-3.312 2.997,-5.915 6.31,-5.78c3.313,-0.135 6.154,2.468 6.31,5.78c-0.156,3.312 -2.997,5.915 -6.31,5.78Z" style="fill-rule:nonzero;"/></g></g><path d="M32,1.72c0,-0.949 -0.771,-1.72 -1.72,-1.72l-28.56,0c-0.949,0 -1.72,0.771 -1.72,1.72l0,28.55c0,0.949 0.771,1.72 1.72,1.72l28.56,0c0.949,0 1.72,-0.771 1.72,-1.72l0,-28.55Z" style="fill:#169cff;"/><g><path d="M6.884,18.957l-0,-7.717l-1.875,-0l0,9.51l5.502,0l0,-1.793l-3.627,-0Z" style="fill:#fff;fill-rule:nonzero;"/><path d="M15.497,20.94c1.753,0 3.288,-0.883 4.09,-2.241l-1.617,-0.938c-0.448,0.829 -1.386,1.345 -2.473,1.345c-1.861,0 -3.084,-1.29 -3.084,-3.111c0,-1.834 1.223,-3.125 3.084,-3.125c1.087,0 2.011,0.517 2.473,1.359l1.617,-0.938c-0.815,-1.358 -2.351,-2.241 -4.09,-2.241c-2.88,-0 -4.945,2.16 -4.945,4.945c0,2.772 2.065,4.945 4.945,4.945Z" style="fill:#fff;fill-rule:nonzero;"/><path d="M26.991,11.24l-6.997,-0l0,1.793l2.554,0l0,7.717l1.875,0l0,-7.717l2.568,0l-0,-1.793Z" style="fill:#fff;fill-rule:nonzero;"/></g></svg>