<?xml version="1.0" encoding="UTF-8" standalone="no"?><!DOCTYPE svg PUBLIC "-//W3C//DTD SVG 1.1//EN" "http://www.w3.org/Graphics/SVG/1.1/DTD/svg11.dtd"><svg width="32px" height="32px" version="1.1" xmlns="http://www.w3.org/2000/svg" xmlns:xlink="http://www.w3.org/1999/xlink" xml:space="preserve" xmlns:serif="http://www.serif.com/" style="fill-rule:evenodd;clip-rule:evenodd;stroke-linejoin:round;stroke-miterlimit:2;"><g><g><path id="c1lSHusfI" d="M8.5,16.41c-4.14,0 -7.5,-3.08 -7.5,-6.88c0,-3.8 3.36,-6.87 7.5,-6.87c4.14,-0 7.5,3.08 7.5,6.87c0,3.79 -3.36,6.88 -7.5,6.88Z" style="fill:#40ccd0;fill-rule:nonzero;"/><path id="c1lSHusfI-2" d="M8.5,16.41c-4.14,0 -7.5,-3.08 -7.5,-6.88c0,-3.8 3.36,-6.87 7.5,-6.87c4.14,-0 7.5,3.08 7.5,6.87c0,3.79 -3.36,6.88 -7.5,6.88Z" style="fill-rule:nonzero;"/></g><g><path id="cxjjA1190" d="M8.5,15.31c-3.313,0.135 -6.154,-2.468 -6.31,-5.78c0.156,-3.312 2.997,-5.915 6.31,-5.78c3.313,-0.135 6.154,2.468 6.31,5.78c-0.156,3.312 -2.997,5.915 -6.31,5.78Z" style="fill-rule:nonzero;"/><path id="cxjjA1190-2" d="M8.5,15.31c-3.313,0.135 -6.154,-2.468 -6.31,-5.78c0.156,-3.312 2.997,-5.915 6.31,-5.78c3.313,-0.135 6.154,2.468 6.31,5.78c-0.156,3.312 -2.997,5.915 -6.31,5.78Z" style="fill-rule:nonzero;"/></g><g><path id="a9nD95wn" d="M23.5,15c-4.14,0 -7.5,-3 -7.5,-6.84c0,-3.84 3.36,-6.88 7.5,-6.88c4.14,0 7.5,3.08 7.5,6.88c0,3.8 -3.36,6.84 -7.5,6.84Z" style="fill:#ecdb33;fill-rule:nonzero;"/><path id="a9nD95wn-2" d="M23.5,15c-4.14,0 -7.5,-3 -7.5,-6.84c0,-3.84 3.36,-6.88 7.5,-6.88c4.14,0 7.5,3.08 7.5,6.88c0,3.8 -3.36,6.84 -7.5,6.84Z" style="fill-rule:nonzero;"/></g><g><path id="b2HbEi674W" d="M23.5,13.94c-3.313,0.135 -6.154,-2.468 -6.31,-5.78c0.156,-3.312 2.997,-5.915 6.31,-5.78c3.313,-0.135 6.154,2.468 6.31,5.78c-0.156,3.312 -2.997,5.915 -6.31,5.78Z" style="fill-rule:nonzero;"/><path id="b2HbEi674W-2" d="M23.5,13.94c-3.313,0.135 -6.154,-2.468 -6.31,-5.78c0.156,-3.312 2.997,-5.915 6.31,-5.78c3.313,-0.135 6.154,2.468 6.31,5.78c-0.156,3.312 -2.997,5.915 -6.31,5.78Z" style="fill-rule:nonzero;"/></g><g><path id="b2WcRpcLCB" d="M8.5,30.72c-4.14,0 -7.5,-3.08 -7.5,-6.88c0,-3.8 3.36,-6.84 7.5,-6.84c4.14,0 7.5,3.05 7.5,6.84c0,3.79 -3.36,6.88 -7.5,6.88Z" style="fill:#3f5554;fill-rule:nonzero;"/><path id="b2WcRpcLCB-2" d="M8.5,30.72c-4.14,0 -7.5,-3.08 -7.5,-6.88c0,-3.8 3.36,-6.84 7.5,-6.84c4.14,0 7.5,3.05 7.5,6.84c0,3.79 -3.36,6.88 -7.5,6.88Z" style="fill-rule:nonzero;"/></g><g><path id="c1la0ENz2l" d="M8.5,29.62c-3.313,0.135 -6.154,-2.468 -6.31,-5.78c0.156,-3.312 2.997,-5.915 6.31,-5.78c3.313,-0.135 6.154,2.468 6.31,5.78c-0.156,3.312 -2.997,5.915 -6.31,5.78Z" style="fill-rule:nonzero;"/><path id="c1la0ENz2l-2" d="M8.5,29.62c-3.313,0.135 -6.154,-2.468 -6.31,-5.78c0.156,-3.312 2.997,-5.915 6.31,-5.78c3.313,-0.135 6.154,2.468 6.31,5.78c-0.156,3.312 -2.997,5.915 -6.31,5.78Z" style="fill-rule:nonzero;"/></g><g><path id="l1osqn9Lb" d="M23.5,29.34c-4.14,0 -7.5,-3.08 -7.5,-6.87c0,-3.79 3.36,-6.88 7.5,-6.88c4.14,0 7.5,3.08 7.5,6.88c0,3.8 -3.36,6.87 -7.5,6.87Z" style="fill:#3f5554;fill-rule:nonzero;"/><path id="l1osqn9Lb-2" d="M23.5,29.34c-4.14,0 -7.5,-3.08 -7.5,-6.87c0,-3.79 3.36,-6.88 7.5,-6.88c4.14,0 7.5,3.08 7.5,6.88c0,3.8 -3.36,6.87 -7.5,6.87Z" style="fill-rule:nonzero;"/></g><g><path id="aocZHFv4F" d="M23.5,28.25c-3.313,0.135 -6.154,-2.468 -6.31,-5.78c0.156,-3.312 2.997,-5.915 6.31,-5.78c3.313,-0.135 6.154,2.468 6.31,5.78c-0.156,3.312 -2.997,5.915 -6.31,5.78Z" style="fill-rule:nonzero;"/><path id="aocZHFv4F-2" d="M23.5,28.25c-3.313,0.135 -6.154,-2.468 -6.31,-5.78c0.156,-3.312 2.997,-5.915 6.31,-5.78c3.313,-0.135 6.154,2.468 6.31,5.78c-0.156,3.312 -2.997,5.915 -6.31,5.78Z" style="fill-rule:nonzero;"/></g></g><path d="M32,1.72c0,-0.949 -0.771,-1.72 -1.72,-1.72l-28.56,0c-0.949,0 -1.72,0.771 -1.72,1.72l0,28.55c0,0.949 0.771,1.72 1.72,1.72l28.56,0c0.949,0 1.72,-0.771 1.72,-1.72l0,-28.55Z" style="fill:#8f00ff;"/><g><g><path d="M12.909,11.24l-1.929,-0l-2.717,4.497l-2.731,-4.497l-1.929,-0l-0,9.51l1.875,0l-0,-6.154l2.676,4.401l0.218,0l2.676,-4.415l-0,6.168l1.861,0l0,-9.51Z" style="fill:#fff;fill-rule:nonzero;"/><path d="M17.773,20.94c2.024,0 3.451,-1.087 3.451,-2.866c-0,-1.943 -1.603,-2.446 -3.111,-2.921c-1.441,-0.435 -1.807,-0.748 -1.807,-1.332c-0,-0.543 0.462,-0.951 1.25,-0.951c0.964,0 1.48,0.503 1.82,1.223l1.576,-0.91c-0.638,-1.332 -1.834,-2.133 -3.396,-2.133c-1.631,-0 -3.125,1.032 -3.125,2.826c-0,1.807 1.413,2.418 2.866,2.839c1.413,0.408 2.052,0.679 2.052,1.386c-0,0.53 -0.394,1.005 -1.522,1.005c-1.182,0 -1.847,-0.57 -2.187,-1.454l-1.603,0.938c0.516,1.413 1.793,2.35 3.736,2.35Z" style="fill:#fff;fill-rule:nonzero;"/><path d="M28.397,11.24l-6.997,-0l0,1.793l2.555,0l-0,7.717l1.874,0l0,-7.717l2.568,0l0,-1.793Z" style="fill:#fff;fill-rule:nonzero;"/></g></g></svg>