<?xml version="1.0" encoding="UTF-8" standalone="no"?><!DOCTYPE svg PUBLIC "-//W3C//DTD SVG 1.1//EN" "http://www.w3.org/Graphics/SVG/1.1/DTD/svg11.dtd"><svg width="32px" height="32px" version="1.1" xmlns="http://www.w3.org/2000/svg" xmlns:xlink="http://www.w3.org/1999/xlink" xml:space="preserve" xmlns:serif="http://www.serif.com/" style="fill-rule:evenodd;clip-rule:evenodd;stroke-linejoin:round;stroke-miterlimit:2;"><g><g><path id="c1lSHusfI" d="M8.5,16.41c-4.14,0 -7.5,-3.08 -7.5,-6.88c0,-3.8 3.36,-6.87 7.5,-6.87c4.14,-0 7.5,3.08 7.5,6.87c0,3.79 -3.36,6.88 -7.5,6.88Z" style="fill:#40ccd0;fill-rule:nonzero;"/><path id="c1lSHusfI-2" d="M8.5,16.41c-4.14,0 -7.5,-3.08 -7.5,-6.88c0,-3.8 3.36,-6.87 7.5,-6.87c4.14,-0 7.5,3.08 7.5,6.87c0,3.79 -3.36,6.88 -7.5,6.88Z" style="fill-rule:nonzero;"/></g><g><path id="cxjjA1190" d="M8.5,15.31c-3.313,0.135 -6.154,-2.468 -6.31,-5.78c0.156,-3.312 2.997,-5.915 6.31,-5.78c3.313,-0.135 6.154,2.468 6.31,5.78c-0.156,3.312 -2.997,5.915 -6.31,5.78Z" style="fill-rule:nonzero;"/><path id="cxjjA1190-2" d="M8.5,15.31c-3.313,0.135 -6.154,-2.468 -6.31,-5.78c0.156,-3.312 2.997,-5.915 6.31,-5.78c3.313,-0.135 6.154,2.468 6.31,5.78c-0.156,3.312 -2.997,5.915 -6.31,5.78Z" style="fill-rule:nonzero;"/></g><g><path id="a9nD95wn" d="M23.5,15c-4.14,0 -7.5,-3 -7.5,-6.84c0,-3.84 3.36,-6.88 7.5,-6.88c4.14,0 7.5,3.08 7.5,6.88c0,3.8 -3.36,6.84 -7.5,6.84Z" style="fill:#ecdb33;fill-rule:nonzero;"/><path id="a9nD95wn-2" d="M23.5,15c-4.14,0 -7.5,-3 -7.5,-6.84c0,-3.84 3.36,-6.88 7.5,-6.88c4.14,0 7.5,3.08 7.5,6.88c0,3.8 -3.36,6.84 -7.5,6.84Z" style="fill-rule:nonzero;"/></g><g><path id="b2HbEi674W" d="M23.5,13.94c-3.313,0.135 -6.154,-2.468 -6.31,-5.78c0.156,-3.312 2.997,-5.915 6.31,-5.78c3.313,-0.135 6.154,2.468 6.31,5.78c-0.156,3.312 -2.997,5.915 -6.31,5.78Z" style="fill-rule:nonzero;"/><path id="b2HbEi674W-2" d="M23.5,13.94c-3.313,0.135 -6.154,-2.468 -6.31,-5.78c0.156,-3.312 2.997,-5.915 6.31,-5.78c3.313,-0.135 6.154,2.468 6.31,5.78c-0.156,3.312 -2.997,5.915 -6.31,5.78Z" style="fill-rule:nonzero;"/></g><g><path id="b2WcRpcLCB" d="M8.5,30.72c-4.14,0 -7.5,-3.08 -7.5,-6.88c0,-3.8 3.36,-6.84 7.5,-6.84c4.14,0 7.5,3.05 7.5,6.84c0,3.79 -3.36,6.88 -7.5,6.88Z" style="fill:#3f5554;fill-rule:nonzero;"/><path id="b2WcRpcLCB-2" d="M8.5,30.72c-4.14,0 -7.5,-3.08 -7.5,-6.88c0,-3.8 3.36,-6.84 7.5,-6.84c4.14,0 7.5,3.05 7.5,6.84c0,3.79 -3.36,6.88 -7.5,6.88Z" style="fill-rule:nonzero;"/></g><g><path id="c1la0ENz2l" d="M8.5,29.62c-3.313,0.135 -6.154,-2.468 -6.31,-5.78c0.156,-3.312 2.997,-5.915 6.31,-5.78c3.313,-0.135 6.154,2.468 6.31,5.78c-0.156,3.312 -2.997,5.915 -6.31,5.78Z" style="fill-rule:nonzero;"/><path id="c1la0ENz2l-2" d="M8.5,29.62c-3.313,0.135 -6.154,-2.468 -6.31,-5.78c0.156,-3.312 2.997,-5.915 6.31,-5.78c3.313,-0.135 6.154,2.468 6.31,5.78c-0.156,3.312 -2.997,5.915 -6.31,5.78Z" style="fill-rule:nonzero;"/></g><g><path id="l1osqn9Lb" d="M23.5,29.34c-4.14,0 -7.5,-3.08 -7.5,-6.87c0,-3.79 3.36,-6.88 7.5,-6.88c4.14,0 7.5,3.08 7.5,6.88c0,3.8 -3.36,6.87 -7.5,6.87Z" style="fill:#3f5554;fill-rule:nonzero;"/><path id="l1osqn9Lb-2" d="M23.5,29.34c-4.14,0 -7.5,-3.08 -7.5,-6.87c0,-3.79 3.36,-6.88 7.5,-6.88c4.14,0 7.5,3.08 7.5,6.88c0,3.8 -3.36,6.87 -7.5,6.87Z" style="fill-rule:nonzero;"/></g><g><path id="aocZHFv4F" d="M23.5,28.25c-3.313,0.135 -6.154,-2.468 -6.31,-5.78c0.156,-3.312 2.997,-5.915 6.31,-5.78c3.313,-0.135 6.154,2.468 6.31,5.78c-0.156,3.312 -2.997,5.915 -6.31,5.78Z" style="fill-rule:nonzero;"/><path id="aocZHFv4F-2" d="M23.5,28.25c-3.313,0.135 -6.154,-2.468 -6.31,-5.78c0.156,-3.312 2.997,-5.915 6.31,-5.78c3.313,-0.135 6.154,2.468 6.31,5.78c-0.156,3.312 -2.997,5.915 -6.31,5.78Z" style="fill-rule:nonzero;"/></g></g><path d="M32,1.72c0,-0.949 -0.771,-1.72 -1.72,-1.72l-28.56,0c-0.949,0 -1.72,0.771 -1.72,1.72l0,28.55c0,0.949 0.771,1.72 1.72,1.72l28.56,0c0.949,0 1.72,-0.771 1.72,-1.72l0,-28.55Z" style="fill:#e99700;"/><g><path d="M9.024,20.75l2.024,0l-2.106,-3.587c1.087,-0.502 1.834,-1.576 1.834,-2.771c0,-1.739 -1.413,-3.152 -3.165,-3.152l-3.804,-0l-0,9.51l1.875,0l-0,-3.301l1.426,-0l1.916,3.301Zm-3.342,-7.757l1.929,-0c0.706,-0 1.29,0.611 1.29,1.399c0,0.788 -0.584,1.413 -1.29,1.413l-1.929,-0l-0,-2.812Z" style="fill:#fff;fill-rule:nonzero;"/><path d="M15.925,11.24l-3.777,-0l0,9.51l3.777,0c2.622,0 4.579,-2.079 4.579,-4.755c-0,-2.676 -1.957,-4.755 -4.579,-4.755Zm0,7.717l-1.902,-0l0,-5.924l1.902,0c1.644,0 2.785,1.209 2.785,2.962c0,1.753 -1.141,2.962 -2.785,2.962Z" style="fill:#fff;fill-rule:nonzero;"/><path d="M24.742,20.94c2.025,0 3.451,-1.087 3.451,-2.866c0,-1.943 -1.603,-2.446 -3.111,-2.921c-1.44,-0.435 -1.807,-0.748 -1.807,-1.332c0,-0.543 0.462,-0.951 1.25,-0.951c0.965,0 1.481,0.503 1.821,1.223l1.576,-0.91c-0.639,-1.332 -1.835,-2.133 -3.397,-2.133c-1.63,-0 -3.125,1.032 -3.125,2.826c0,1.807 1.413,2.418 2.867,2.839c1.413,0.408 2.051,0.679 2.051,1.386c0,0.53 -0.394,1.005 -1.521,1.005c-1.182,0 -1.848,-0.57 -2.187,-1.454l-1.604,0.938c0.517,1.413 1.794,2.35 3.736,2.35Z" style="fill:#fff;fill-rule:nonzero;"/></g></svg>