<svg id="Layer_1" data-name="Layer 1" xmlns="http://www.w3.org/2000/svg" width="32" height="31.99" viewBox="0 0 32 31.99">
  <defs>
    <style>
      .cls-1 {
        fill: #40ccd0;
      }

      .cls-2, .cls-3, .cls-4 {
        fill-opacity: 0;
      }

      .cls-2, .cls-4 {
        stroke: #000;
      }

      .cls-4 {
        stroke-width: 0.5px;
      }

      .cls-5 {
        fill: #ecdb33;
      }

      .cls-6 {
        fill: #3f5554;
      }

      .cls-7 {
        fill: #3251c0;
      }

      .cls-8 {
        fill: #fff;
      }
    </style>
  </defs>
  <g>
    <g>
      <path id="c1lSHusfI" class="cls-1" d="M8.5,16.41C4.36,16.41,1,13.33,1,9.53S4.36,2.66,8.5,2.66,16,5.74,16,9.53,12.64,16.41,8.5,16.41Z" transform="translate(0 0)"/>
      <path id="c1lSHusfI-2" data-name="c1lSHusfI" class="cls-2" d="M8.5,16.41C4.36,16.41,1,13.33,1,9.53S4.36,2.66,8.5,2.66,16,5.74,16,9.53,12.64,16.41,8.5,16.41Z" transform="translate(0 0)"/>
    </g>
    <g>
      <path id="cxjjA1190" class="cls-3" d="M8.5,15.31A6.07,6.07,0,0,1,2.19,9.53,6.07,6.07,0,0,1,8.5,3.75a6.07,6.07,0,0,1,6.31,5.78A6.07,6.07,0,0,1,8.5,15.31Z" transform="translate(0 0)"/>
      <path id="cxjjA1190-2" data-name="cxjjA1190" class="cls-4" d="M8.5,15.31A6.07,6.07,0,0,1,2.19,9.53,6.07,6.07,0,0,1,8.5,3.75a6.07,6.07,0,0,1,6.31,5.78A6.07,6.07,0,0,1,8.5,15.31Z" transform="translate(0 0)"/>
    </g>
    <g>
      <path id="a9nD95wn" class="cls-5" d="M23.5,15C19.36,15,16,12,16,8.16s3.36-6.88,7.5-6.88S31,4.36,31,8.16,27.64,15,23.5,15Z" transform="translate(0 0)"/>
      <path id="a9nD95wn-2" data-name="a9nD95wn" class="cls-2" d="M23.5,15C19.36,15,16,12,16,8.16s3.36-6.88,7.5-6.88S31,4.36,31,8.16,27.64,15,23.5,15Z" transform="translate(0 0)"/>
    </g>
    <g>
      <path id="b2HbEi674W" class="cls-3" d="M23.5,13.94a6.07,6.07,0,0,1-6.31-5.78A6.07,6.07,0,0,1,23.5,2.38a6.07,6.07,0,0,1,6.31,5.78A6.07,6.07,0,0,1,23.5,13.94Z" transform="translate(0 0)"/>
      <path id="b2HbEi674W-2" data-name="b2HbEi674W" class="cls-4" d="M23.5,13.94a6.07,6.07,0,0,1-6.31-5.78A6.07,6.07,0,0,1,23.5,2.38a6.07,6.07,0,0,1,6.31,5.78A6.07,6.07,0,0,1,23.5,13.94Z" transform="translate(0 0)"/>
    </g>
    <g>
      <path id="b2WcRpcLCB" class="cls-6" d="M8.5,30.72c-4.14,0-7.5-3.08-7.5-6.88S4.36,17,8.5,17,16,20.05,16,23.84,12.64,30.72,8.5,30.72Z" transform="translate(0 0)"/>
      <path id="b2WcRpcLCB-2" data-name="b2WcRpcLCB" class="cls-2" d="M8.5,30.72c-4.14,0-7.5-3.08-7.5-6.88S4.36,17,8.5,17,16,20.05,16,23.84,12.64,30.72,8.5,30.72Z" transform="translate(0 0)"/>
    </g>
    <g>
      <path id="c1la0ENz2l" class="cls-3" d="M8.5,29.62a6.07,6.07,0,0,1-6.31-5.78A6.07,6.07,0,0,1,8.5,18.06a6.07,6.07,0,0,1,6.31,5.78A6.07,6.07,0,0,1,8.5,29.62Z" transform="translate(0 0)"/>
      <path id="c1la0ENz2l-2" data-name="c1la0ENz2l" class="cls-4" d="M8.5,29.62a6.07,6.07,0,0,1-6.31-5.78A6.07,6.07,0,0,1,8.5,18.06a6.07,6.07,0,0,1,6.31,5.78A6.07,6.07,0,0,1,8.5,29.62Z" transform="translate(0 0)"/>
    </g>
    <g>
      <path id="l1osqn9Lb" class="cls-6" d="M23.5,29.34c-4.14,0-7.5-3.08-7.5-6.87s3.36-6.88,7.5-6.88S31,18.67,31,22.47,27.64,29.34,23.5,29.34Z" transform="translate(0 0)"/>
      <path id="l1osqn9Lb-2" data-name="l1osqn9Lb" class="cls-2" d="M23.5,29.34c-4.14,0-7.5-3.08-7.5-6.87s3.36-6.88,7.5-6.88S31,18.67,31,22.47,27.64,29.34,23.5,29.34Z" transform="translate(0 0)"/>
    </g>
    <g>
      <path id="aocZHFv4F" class="cls-3" d="M23.5,28.25a6.07,6.07,0,0,1-6.31-5.78,6.07,6.07,0,0,1,6.31-5.78,6.07,6.07,0,0,1,6.31,5.78A6.07,6.07,0,0,1,23.5,28.25Z" transform="translate(0 0)"/>
      <path id="aocZHFv4F-2" data-name="aocZHFv4F" class="cls-4" d="M23.5,28.25a6.07,6.07,0,0,1-6.31-5.78,6.07,6.07,0,0,1,6.31-5.78,6.07,6.07,0,0,1,6.31,5.78A6.07,6.07,0,0,1,23.5,28.25Z" transform="translate(0 0)"/>
    </g>
  </g>
  <rect class="cls-7" width="32" height="31.99" rx="1.72"/>
  <g>
    <path class="cls-8" d="M4.28,18.4l1.48-.87a2,2,0,0,0,2,1.35c1,0,1.41-.44,1.41-.93,0-.65-.59-.91-1.9-1.28s-2.65-1-2.65-2.63a2.68,2.68,0,0,1,2.89-2.62,3.34,3.34,0,0,1,3.14,2l-1.45.84a1.74,1.74,0,0,0-1.69-1.13c-.73,0-1.15.38-1.15.88s.33.83,1.67,1.23,2.88.91,2.88,2.7-1.32,2.66-3.2,2.66A3.39,3.39,0,0,1,4.28,18.4Z" transform="translate(0 0)"/>
    <path class="cls-8" d="M11.59,16a4.46,4.46,0,0,1,4.58-4.58A4.37,4.37,0,0,1,20,13.5l-1.49.87a2.54,2.54,0,0,0-2.29-1.26A2.72,2.72,0,0,0,13.32,16a2.72,2.72,0,0,0,2.85,2.88,2.54,2.54,0,0,0,2.29-1.25L20,18.5a4.34,4.34,0,0,1-3.78,2.08A4.47,4.47,0,0,1,11.59,16Z" transform="translate(0 0)"/>
    <path class="cls-8" d="M24.08,17.35H22.76v3H21V11.6h3.52a2.92,2.92,0,0,1,2.93,2.92,2.86,2.86,0,0,1-1.69,2.56l1.94,3.32H25.85Zm-1.32-1.53h1.78a1.3,1.3,0,0,0,0-2.6H22.76Z" transform="translate(0 0)"/>
  </g>
</svg>
