<svg id="Layer_1" data-name="Layer 1" xmlns="http://www.w3.org/2000/svg" width="29.56" height="30.43" viewBox="0 0 29.56 30.43">
  <defs>
    <style>
      .cls-1 {
        fill: #1976d2;
      }

      .cls-2 {
        fill: #fff;
      }
    </style>
  </defs>
  <path class="cls-1" d="M1.6,0H28a1.63,1.63,0,0,1,1.6,1.67V28.76A1.63,1.63,0,0,1,28,30.43H1.6A1.64,1.64,0,0,1,0,28.76V1.67A1.64,1.64,0,0,1,1.6,0Z" transform="translate(0)"/>
  <g>
    <path class="cls-2" d="M3.47,19.17l2.45-1.43A3.25,3.25,0,0,0,9.26,20c1.72,0,2.32-.72,2.32-1.53,0-1.08-1-1.5-3.13-2.12S4.07,14.74,4.07,12,6.35,7.67,8.84,7.67A5.5,5.5,0,0,1,14,10.92l-2.4,1.39a2.85,2.85,0,0,0-2.78-1.86c-1.2,0-1.91.62-1.91,1.45s.56,1.37,2.76,2,4.75,1.49,4.75,4.46c0,2.71-2.18,4.37-5.27,4.37S4.26,21.33,3.47,19.17Z" transform="translate(0)"/>
    <path class="cls-2" d="M15.12,19.17l2.45-1.43A3.25,3.25,0,0,0,20.91,20c1.72,0,2.32-.72,2.32-1.53,0-1.08-1-1.5-3.13-2.12S15.73,14.74,15.73,12,18,7.67,20.49,7.67a5.5,5.5,0,0,1,5.18,3.25l-2.4,1.39a2.85,2.85,0,0,0-2.78-1.86c-1.2,0-1.9.62-1.9,1.45s.56,1.37,2.75,2,4.75,1.49,4.75,4.46c0,2.71-2.18,4.37-5.26,4.37S15.91,21.33,15.12,19.17Z" transform="translate(0)"/>
  </g>
</svg>
