<?xml version="1.0" encoding="UTF-8" standalone="no"?>
<!DOCTYPE svg PUBLIC "-//W3C//DTD SVG 1.1//EN" "http://www.w3.org/Graphics/SVG/1.1/DTD/svg11.dtd">
<svg width="32px" height="32px" version="1.1" xmlns="http://www.w3.org/2000/svg" xmlns:xlink="http://www.w3.org/1999/xlink" xml:space="preserve" xmlns:serif="http://www.serif.com/" style="fill-rule:evenodd;clip-rule:evenodd;stroke-linejoin:round;stroke-miterlimit:2;">
    <path d="M32,2C32,0.896 31.104,0 30,0L2,0C0.896,0 0,0.896 0,2L0,29.99C0,31.094 0.896,31.99 2,31.99L30,31.99C31.104,31.99 32,31.094 32,29.99L32,2Z" style="fill:rgb(221,163,0);"/>
    <g transform="matrix(1,0,0,1,-3.74423,14.3142)">
        <g transform="matrix(12,0,0,12,6.97023,5.88082)">
            <path d="M0.304,0.014C0.453,0.014 0.558,-0.066 0.558,-0.197C0.558,-0.34 0.44,-0.377 0.329,-0.412C0.223,-0.444 0.196,-0.467 0.196,-0.51C0.196,-0.55 0.23,-0.58 0.288,-0.58C0.359,-0.58 0.397,-0.543 0.422,-0.49L0.538,-0.557C0.491,-0.655 0.403,-0.714 0.288,-0.714C0.168,-0.714 0.058,-0.638 0.058,-0.506C0.058,-0.373 0.162,-0.328 0.269,-0.297C0.373,-0.267 0.42,-0.247 0.42,-0.195C0.42,-0.156 0.391,-0.121 0.308,-0.121C0.221,-0.121 0.172,-0.163 0.147,-0.228L0.029,-0.159C0.067,-0.055 0.161,0.014 0.304,0.014Z" style="fill:white;fill-rule:nonzero;"/>
        </g>
        <g transform="matrix(12,0,0,12,13.7262,5.88082)">
            <path d="M0.211,-0L0.368,-0L0.499,-0.462L0.631,-0L0.788,-0L0.984,-0.7L0.839,-0.7L0.705,-0.181L0.558,-0.7L0.44,-0.7L0.294,-0.181L0.16,-0.7L0.015,-0.7L0.211,-0Z" style="fill:white;fill-rule:nonzero;"/>
        </g>
        <g transform="matrix(12,0,0,12,25.4742,5.88082)">
            <path d="M0.304,0.014C0.453,0.014 0.558,-0.066 0.558,-0.197C0.558,-0.34 0.44,-0.377 0.329,-0.412C0.223,-0.444 0.196,-0.467 0.196,-0.51C0.196,-0.55 0.23,-0.58 0.288,-0.58C0.359,-0.58 0.397,-0.543 0.422,-0.49L0.538,-0.557C0.491,-0.655 0.403,-0.714 0.288,-0.714C0.168,-0.714 0.058,-0.638 0.058,-0.506C0.058,-0.373 0.162,-0.328 0.269,-0.297C0.373,-0.267 0.42,-0.247 0.42,-0.195C0.42,-0.156 0.391,-0.121 0.308,-0.121C0.221,-0.121 0.172,-0.163 0.147,-0.228L0.029,-0.159C0.067,-0.055 0.161,0.014 0.304,0.014Z" style="fill:white;fill-rule:nonzero;"/>
        </g>
    </g>
</svg>
