<svg id="Layer_1" data-name="Layer 1" xmlns="http://www.w3.org/2000/svg" width="30.52" height="8.56" viewBox="0 0 30.52 8.56">
  <defs>
    <style>
      .cls-1 {
        fill: #40ccd0;
      }

      .cls-2 {
        fill: #fff;
      }
    </style>
  </defs>
  <g>
    <rect class="cls-1" width="30.52" height="8.56" rx="4.02"/>
    <g>
      <path class="cls-2" d="M7.74,14.35H6.62v3.41H5.8V14.35H4.69v-.79H7.74Z" transform="translate(-0.74 -11.72)"/>
      <path class="cls-2" d="M10.63,14.76v3H9.87v-.35a1.19,1.19,0,0,1-1,.43,1.59,1.59,0,0,1,0-3.16,1.2,1.2,0,0,1,1,.44v-.36Zm-.76,1.5A.8.8,0,0,0,9,15.42a.85.85,0,0,0,0,1.69A.8.8,0,0,0,9.87,16.26Z" transform="translate(-0.74 -11.72)"/>
      <path class="cls-2" d="M11.23,13.93a.47.47,0,1,1,.94,0,.47.47,0,0,1-.94,0Zm.09.83h.76v3h-.76Z" transform="translate(-0.74 -11.72)"/>
      <path class="cls-2" d="M12.78,13.38h.76v4.38h-.76Z" transform="translate(-0.74 -11.72)"/>
      <path class="cls-2" d="M15.54,16.81l.7-.42a.94.94,0,0,0,1,.65c.49,0,.66-.21.66-.45s-.27-.43-.89-.61-1.25-.46-1.25-1.25a1.27,1.27,0,0,1,1.36-1.25,1.57,1.57,0,0,1,1.48.94l-.68.4a.82.82,0,0,0-.8-.54c-.34,0-.54.18-.54.42s.16.4.78.59,1.36.43,1.36,1.29-.62,1.26-1.5,1.26A1.59,1.59,0,0,1,15.54,16.81Z" transform="translate(-0.74 -11.72)"/>
      <path class="cls-2" d="M22.33,16.26a1.5,1.5,0,0,1-1.44,1.58,1.14,1.14,0,0,1-1-.43V19h-.77v-4.2h.77v.36a1.12,1.12,0,0,1,1-.44A1.51,1.51,0,0,1,22.33,16.26Zm-.76,0a.82.82,0,1,0-.83.85A.8.8,0,0,0,21.57,16.26Z" transform="translate(-0.74 -11.72)"/>
      <path class="cls-2" d="M22.78,13.93a.48.48,0,0,1,.46-.48.49.49,0,0,1,.48.48.48.48,0,0,1-.48.47A.47.47,0,0,1,22.78,13.93Zm.09.83h.76v3h-.76Z" transform="translate(-0.74 -11.72)"/>
      <path class="cls-2" d="M27.09,15.92v1.84h-.76V16a.56.56,0,0,0-.59-.62c-.37,0-.65.22-.65.74v1.62h-.76v-3h.76v.34a1,1,0,0,1,.88-.42A1.11,1.11,0,0,1,27.09,15.92Z" transform="translate(-0.74 -11.72)"/>
    </g>
  </g>
</svg>
