<svg id="Layer_1" data-name="Layer 1" xmlns="http://www.w3.org/2000/svg" width="32" height="32" viewBox="0 0 32 32">
  <defs>
    <style>
      .cls-1 {
        fill: #1976d2;
      }

      .cls-2 {
        fill: #fff;
      }
    </style>
  </defs>
  <rect class="cls-1" x="0.55" y="0.78" width="30.89" height="30.43" rx="1.67"/>
  <g>
    <path class="cls-2" d="M7.92,11.35a2.33,2.33,0,0,1-2.47,2.3H2.07V5.7H5.21A2.27,2.27,0,0,1,7.63,7.94a2,2,0,0,1-.75,1.59A2,2,0,0,1,7.92,11.35ZM3.64,7.16V8.91H5.21a.88.88,0,0,0,0-1.75Zm2.73,4.08a.9.9,0,0,0-.92-.93H3.64v1.88H5.45A.91.91,0,0,0,6.37,11.24Z"/>
    <path class="cls-2" d="M13.58,12.22H10.41l-.47,1.43H8.24L11,5.7H13l2.8,8H14.06Zm-.48-1.47L12,7.5l-1.09,3.25Z"/>
    <path class="cls-2" d="M15.89,9.67A4,4,0,0,1,20,5.54a3.94,3.94,0,0,1,3.42,1.87L22.1,8.2A2.29,2.29,0,0,0,20,7.06a2.46,2.46,0,0,0-2.58,2.61A2.46,2.46,0,0,0,20,12.28a2.29,2.29,0,0,0,2.07-1.13l1.35.79A3.94,3.94,0,0,1,20,13.81,4,4,0,0,1,15.89,9.67Z"/>
    <path class="cls-2" d="M28.83,13.65,26,9.92v3.73H24.42V5.7H26V9.21L28.71,5.7h1.81L27.58,9.56l3.06,4.09Z"/>
    <path class="cls-2" d="M7.91,18.56H5.76V25H4.19V18.56H2.05v-1.5H7.91Z"/>
    <path class="cls-2" d="M8.71,22.42V17.06h1.56v5.23c0,.77.41,1.35,1.48,1.35s1.48-.58,1.48-1.35V17.06H14.8v5.36a2.77,2.77,0,0,1-3.05,2.76A2.76,2.76,0,0,1,8.71,22.42Z"/>
    <path class="cls-2" d="M19,22.26h-1.2V25H16.2v-8h3.19A2.65,2.65,0,0,1,22,19.7,2.6,2.6,0,0,1,20.5,22l1.76,3H20.57Zm-1.2-1.38h1.62a1.18,1.18,0,0,0,0-2.35H17.77Z"/>
    <path class="cls-2" d="M29.36,17.06v8h-1.2l-3.41-4.87V25H23.18v-8h1.2l3.41,4.86V17.06Z"/>
  </g>
</svg>
