<svg id="Layer_1" data-name="Layer 1" xmlns="http://www.w3.org/2000/svg" width="30.89" height="30.43" viewBox="0 0 30.89 30.43">
  <defs>
    <style>
      .cls-1 {
        fill: #1976d2;
      }

      .cls-2 {
        fill: #fff;
      }
    </style>
  </defs>
  <rect class="cls-1" width="30.89" height="30.43" rx="1.67"/>
  <g>
    <path class="cls-2" d="M2.62,5.7H4.06l1.33,5.16L6.85,5.7H8l1.46,5.16L10.81,5.7h1.44l-1.95,7H8.74L7.43,8.07l-1.3,4.59H4.57Z"/>
    <path class="cls-2" d="M16.71,11.41H13.93l-.41,1.25H12l2.43-7h1.7l2.44,7H17.12Zm-.43-1.29-1-2.84-1,2.84Z"/>
    <path class="cls-2" d="M23.32,11.35v1.31h-4v-7h1.37v5.65Z"/>
    <path class="cls-2" d="M28.12,11.35v1.31h-4v-7h1.37v5.65Z"/>
    <path class="cls-2" d="M1.59,23l1.18-.69a1.55,1.55,0,0,0,1.6,1.07c.82,0,1.11-.35,1.11-.74s-.47-.72-1.5-1-2.1-.76-2.1-2.08a2.12,2.12,0,0,1,2.29-2.07,2.65,2.65,0,0,1,2.48,1.56l-1.15.67a1.36,1.36,0,0,0-1.33-.89c-.58,0-.92.29-.92.69s.27.66,1.32,1,2.28.72,2.28,2.14-1,2.1-2.52,2.1A2.7,2.7,0,0,1,1.59,23Z"/>
    <path class="cls-2" d="M12.67,20a2.33,2.33,0,0,1-2.38,2.33H9.07v2.29H7.7v-7h2.59A2.34,2.34,0,0,1,12.67,20ZM11.3,20a1,1,0,0,0-1-1.06H9.07V21h1.22A1,1,0,0,0,11.3,20Z"/>
    <path class="cls-2" d="M17.59,23.28v1.31h-4v-7h1.37v5.65Z"/>
    <path class="cls-2" d="M22.62,23.34H19.84l-.41,1.25H18l2.43-7h1.7l2.44,7H23Zm-.43-1.29-1-2.84-1,2.84Z"/>
    <path class="cls-2" d="M29.3,18.94H27.42v5.65H26.05V18.94H24.18V17.63H29.3Z"/>
  </g>
</svg>
