<svg id="Layer_1" data-name="Layer 1" xmlns="http://www.w3.org/2000/svg" width="30.89" height="30.43" viewBox="0 0 30.89 30.43">
  <defs>
    <style>
      .cls-1 {
        fill: #1976d2;
      }

      .cls-2 {
        fill: #fff;
      }
    </style>
  </defs>
  <rect class="cls-1" width="30.89" height="30.43" rx="1.67"/>
  <g>
    <path class="cls-2" d="M3.88,6.84H5.15l1.18,4.57L7.62,6.84h1L10,11.41l1.18-4.57h1.27L10.69,13H9.3L8.14,8.94,7,13H5.6Z"/>
    <path class="cls-2" d="M16.37,11.9H13.91L13.54,13H12.22l2.16-6.17h1.51L18.06,13H16.74ZM16,10.76l-.85-2.52-.84,2.52Z"/>
    <path class="cls-2" d="M22.23,11.85V13H18.66V6.84h1.22v5Z"/>
    <path class="cls-2" d="M26.49,11.85V13H22.92V6.84h1.21v5Z"/>
    <path class="cls-2" d="M6.87,21.8A1.81,1.81,0,0,1,5,23.59H2.33V17.42H4.77a1.76,1.76,0,0,1,1.87,1.74,1.53,1.53,0,0,1-.58,1.23A1.57,1.57,0,0,1,6.87,21.8ZM3.55,18.56v1.35H4.77a.68.68,0,0,0,0-1.35Zm2.11,3.16A.7.7,0,0,0,5,21H3.55v1.45H5A.7.7,0,0,0,5.66,21.72Z"/>
    <path class="cls-2" d="M9.81,21.45H8.88v2.14H7.67V17.42h2.46a2.05,2.05,0,0,1,2.06,2A2,2,0,0,1,11,21.26l1.36,2.33H11.05Zm-.93-1.07h1.25a.88.88,0,0,0,.84-.92.87.87,0,0,0-.84-.9H8.88Z"/>
    <path class="cls-2" d="M16.89,22.42v1.17H13.08V17.42h3.77v1.16H14.3V19.9h2.33V21H14.3v1.38Z"/>
    <path class="cls-2" d="M21.44,22.48H19l-.37,1.11H17.3l2.16-6.17H21l2.16,6.17H21.81Zm-.38-1.14-.84-2.52-.85,2.52Z"/>
    <path class="cls-2" d="M27.15,23.59,25,20.7v2.89H23.74V17.42H25v2.72l2.12-2.72h1.4l-2.28,3,2.37,3.17Z"/>
  </g>
</svg>
