<svg id="Layer_1" data-name="Layer 1" xmlns="http://www.w3.org/2000/svg" width="29.56" height="30.43" viewBox="0 0 29.56 30.43">
  <defs>
    <style>
      .cls-1 {
        fill: #1976d2;
      }

      .cls-2 {
        fill: #fff;
      }
    </style>
  </defs>
  <path class="cls-1" d="M1.6,0H28a1.63,1.63,0,0,1,1.6,1.67V28.76A1.63,1.63,0,0,1,28,30.43H1.6A1.64,1.64,0,0,1,0,28.76V1.67A1.64,1.64,0,0,1,1.6,0Z" transform="translate(0)"/>
  <g>
    <path class="cls-2" d="M2.4,9.74H4.67l2.1,8.12L9.05,9.74H10.9l2.3,8.12,2.1-8.12h2.27l-3.07,11H12L10,13.46,7.93,20.69H5.47Z" transform="translate(0)"/>
    <path class="cls-2" d="M22.62,16.89H21v3.8H18.82v-11H23.2a3.64,3.64,0,0,1,3.65,3.63,3.56,3.56,0,0,1-2.11,3.19l2.42,4.13H24.83ZM21,15H23.2a1.56,1.56,0,0,0,1.49-1.63,1.54,1.54,0,0,0-1.49-1.61H21Z" transform="translate(0)"/>
  </g>
</svg>
