<svg id="Layer_1" data-name="Layer 1" xmlns="http://www.w3.org/2000/svg" width="31.24" height="30.43" viewBox="0 0 31.24 30.43">
  <defs>
    <style>
      .cls-1 {
        fill: #1976d2;
      }

      .cls-2 {
        fill: #fff;
      }
    </style>
  </defs>
  <path class="cls-1" d="M1.69,0H29.55a1.68,1.68,0,0,1,1.69,1.67V28.76a1.68,1.68,0,0,1-1.69,1.67H1.69A1.68,1.68,0,0,1,0,28.76V1.67A1.68,1.68,0,0,1,1.69,0Z" transform="translate(0)"/>
  <g>
    <path class="cls-2" d="M3.85,9.8H6.1l2.07,8,2.26-8h1.82l2.28,8,2.07-8h2.25l-3,10.83H13.38l-2-7.15-2,7.15H6.89Z" transform="translate(0)"/>
    <path class="cls-2" d="M19.22,18.17l1.83-1.07a2.42,2.42,0,0,0,2.49,1.66c1.28,0,1.73-.54,1.73-1.15,0-.8-.72-1.11-2.33-1.58s-3.27-1.17-3.27-3.23a3.3,3.3,0,0,1,3.56-3.22A4.13,4.13,0,0,1,27.1,12l-1.8,1a2.12,2.12,0,0,0-2.07-1.39c-.9,0-1.42.46-1.42,1.08s.41,1,2.05,1.52,3.55,1.11,3.55,3.32c0,2-1.63,3.27-3.93,3.27A4.18,4.18,0,0,1,19.22,18.17Z" transform="translate(0)"/>
  </g>
</svg>
